<?xml version="1.0" encoding="UTF-8"?>
<svg width="39px" height="38px" viewBox="0 0 39 38" version="1.1" xmlns="http://www.w3.org/2000/svg" xmlns:xlink="http://www.w3.org/1999/xlink">
    <!-- Generator: Sketch 53.2 (72643) - https://sketchapp.com -->
    <title>Group 4</title>
    <desc>Created with Sketch.</desc>
    <g id="Page-1" stroke="none" stroke-width="1" fill="none" fill-rule="evenodd">
        <g id="Desktop-HD-Copy" transform="translate(-531.000000, -4146.000000)" fill="#1F2933">
            <g id="Footer" transform="translate(-2.000000, 4016.000000)">
                <g id="Group-4" transform="translate(533.369882, 130.000000)">
                    <path d="M18.9981749,1.42108547e-13 C8.50589868,1.42108547e-13 1.42108547e-13,8.5 1.42108547e-13,18.985 C1.42108547e-13,29.465 8.50589868,37.965 18.9981749,37.965 C29.4854476,37.965 37.9913463,29.465 37.9913463,18.985 C37.9913463,8.5 29.4854476,1.42108547e-13 18.9981749,1.42108547e-13 L18.9981749,1.42108547e-13 Z M27.9844067,20.78 C27.8643234,21.37 27.6841985,21.95 27.4490354,22.5 C27.2188758,23.045 26.933678,23.57 26.603449,24.06 C26.2782235,24.545 25.8979598,25 25.4826718,25.415 C25.0673838,25.83 24.612068,26.205 24.1267314,26.535 C23.6363914,26.865 23.1110271,27.15 22.5706523,27.38 C22.0152672,27.615 21.4348647,27.795 20.8444552,27.915 C20.2390354,28.04 19.6186051,28.1 18.9981749,28.1 C18.3727412,28.1 17.7523109,28.04 17.146891,27.915 C16.5614851,27.795 15.9810826,27.615 15.4256974,27.38 C14.8803192,27.15 14.3549549,26.865 13.8646149,26.535 C13.3792783,26.205 12.9239625,25.83 12.5086745,25.415 C12.0933865,25 11.7181263,24.545 11.3878973,24.06 C11.0576683,23.57 10.7724705,23.045 10.5423109,22.5 C10.3071478,21.95 10.1270229,21.37 10.0069396,20.78 C9.88185288,20.175 9.82181124,19.555 9.82181124,18.93 C9.82181124,18.31 9.88185288,17.69 10.0069396,17.085 C10.1270229,16.5 10.3071478,15.915 10.5423109,15.365 C10.7724705,14.82 11.0576683,14.295 11.3878973,13.805 C11.7181263,13.32 12.0933865,12.865 12.5086745,12.45 C12.9239625,12.035 13.3792783,11.66 13.8646149,11.33 C14.3549549,11 14.8803192,10.715 15.4256974,10.485 C15.9810826,10.25 16.5614851,10.07 17.146891,9.95 C17.7523109,9.825 18.3727412,9.765 18.9981749,9.765 C19.6186051,9.765 20.2390354,9.825 20.8444552,9.95 C21.4348647,10.07 22.0152672,10.25 22.5706523,10.485 C23.1110271,10.715 23.6363914,11 24.1267314,11.33 C24.612068,11.66 25.0673838,12.035 25.4826718,12.45 C25.8979598,12.865 26.2782235,13.32 26.603449,13.805 C26.933678,14.295 27.2188758,14.82 27.4490354,15.365 C27.6841985,15.915 27.8643234,16.5 27.9844067,17.085 C28.1094934,17.69 28.169535,18.31 28.169535,18.93 C28.169535,19.555 28.1094934,20.175 27.9844067,20.78 L27.9844067,20.78 Z" id="Dribbble-Circle"></path>
                    <path d="M11.3278557,17.32 C11.8382096,14.895 13.4693407,12.88 15.655857,11.85 C15.7559264,11.99 17.2069327,13.955 18.562873,16.365 C14.8002637,17.36 11.5329979,17.32 11.3278557,17.32 Z M13.1641291,24.16 C11.9182651,22.77 11.1627412,20.945 11.1627412,18.93 C11.1627412,18.85 11.1627412,18.765 11.1677446,18.685 C11.3078418,18.69 15.1755239,18.775 19.2133241,17.57 C19.4384802,18.01 19.648626,18.455 19.8487647,18.9 C19.7436919,18.93 19.6436225,18.96 19.5385496,18.995 C15.3106176,20.36 13.1641291,24.16 13.1641291,24.16 Z M20.384136,20.195 C21.4848994,23.06 21.9402151,25.455 22.0552949,26.14 C21.1146426,26.54 20.0839278,26.765 18.9981749,26.765 C17.1819153,26.765 15.5107564,26.145 14.1798334,25.105 C14.1798334,25.105 15.6808744,21.83 20.3290978,20.215 C20.3491117,20.205 20.3641221,20.205 20.384136,20.195 Z M20.0789244,15.89 C18.7379944,13.43 17.2669743,11.48 17.1518945,11.325 C17.742304,11.18 18.3627342,11.1 18.9981749,11.1 C20.9795489,11.1 22.790805,11.84 24.1717627,13.055 C24.1517488,13.085 23.035975,14.785 20.0789244,15.89 Z M26.7335392,20.175 C26.3832963,22.36 25.1324289,24.24 23.376211,25.425 C23.2961554,24.955 22.875864,22.655 21.8501527,19.835 C24.3819084,19.43 26.5734282,20.125 26.7335392,20.175 Z M25.0473699,13.96 C26.1481332,15.295 26.8135947,16.995 26.8286051,18.855 C26.7185288,18.83 24.0666898,18.26 21.374823,18.595 C21.3147814,18.465 21.2597432,18.33 21.2047051,18.195 C21.0395906,17.81 20.8644691,17.43 20.6843442,17.06 C23.7764885,15.795 25.0323595,13.98 25.0473699,13.96 Z" id="Dribbble"></path>
                </g>
            </g>
        </g>
    </g>
</svg>