<?xml version="1.0" encoding="UTF-8"?>
<svg width="39px" height="38px" viewBox="0 0 39 38" version="1.1" xmlns="http://www.w3.org/2000/svg" xmlns:xlink="http://www.w3.org/1999/xlink">
    <!-- Generator: Sketch 53.2 (72643) - https://sketchapp.com -->
    <title>Behance</title>
    <desc>Created with Sketch.</desc>
    <g id="Page-1" stroke="none" stroke-width="1" fill="none" fill-rule="evenodd">
        <g id="Desktop-HD-Copy" transform="translate(-644.000000, -4146.000000)" fill="#1F2933">
            <g id="Footer" transform="translate(-2.000000, 4016.000000)">
                <path d="M665.463989,130 C654.96204,130 646.4483,138.507836 646.4483,149.002502 C646.4483,159.492164 654.96204,168 665.463989,168 C675.96093,168 684.47467,159.492164 684.47467,149.002502 C684.47467,138.507836 675.96093,130 665.463989,130 L665.463989,130 Z M668.20341,143.947847 L673.211493,143.947847 L673.211493,145.44923 L668.20341,145.44923 L668.20341,143.947847 Z M665.353811,152.891084 C665.143472,153.241407 664.873035,153.536679 664.552518,153.771895 C664.191936,154.047149 663.766249,154.217305 663.270449,154.322402 C662.779657,154.422494 662.2488,154.457527 661.672871,154.457527 L656.68482,154.457527 L656.68482,143.447386 L662.038461,143.447386 C663.4257,143.447386 664.402276,143.792704 664.978205,144.568418 C665.323763,145.043856 665.499046,145.579349 665.499046,146.239958 C665.499046,146.920585 665.323763,147.451073 664.973197,147.866456 C664.777882,148.101673 664.492421,148.306862 664.111807,148.497037 C664.687736,148.70723 665.12344,149.027525 665.418916,149.47794 C665.714393,149.928355 665.859628,150.468853 665.859628,151.109443 C665.859628,151.775056 665.694361,152.370605 665.353811,152.891084 L665.353811,152.891084 Z M674.904225,150.9543 L668.799372,150.9543 C668.834429,151.955222 669.124897,152.355591 669.675787,152.685895 C670.011328,152.896089 670.411975,152.991176 670.882734,152.991176 C671.383543,152.991176 671.789197,152.831029 672.099698,152.580798 C672.269973,152.445674 672.425224,152.455683 672.550426,151.955222 L674.789039,151.955222 C674.728942,152.455683 674.458505,153.001185 673.977729,153.506651 C673.226517,154.307388 672.17482,154.767812 670.822637,154.767812 C669.705835,154.767812 668.724251,154.427499 667.872877,153.751877 C667.016495,153.07125 666.590808,151.970236 666.590808,150.438825 C666.590808,149.007507 666.97643,147.911497 667.747675,147.145792 C668.518919,146.385092 669.515528,145.999737 670.742508,145.999737 C671.473688,145.999737 672.129747,146.129856 672.715693,146.385092 C673.301638,146.645331 673.782414,147.050705 674.163028,147.611221 C674.508586,148.101673 674.728942,148.667193 674.834112,149.312788 C674.894209,149.693138 674.914241,150.453839 674.904225,150.9543 L674.904225,150.9543 Z M670.742508,147.761359 C671.263349,147.761359 671.694044,147.88147 672.04461,148.176742 C672.395175,148.477018 672.590491,148.952456 672.630555,149.452917 L668.849453,149.452917 C668.929582,148.952456 669.124897,148.527064 669.435399,148.216779 C669.7459,147.901488 670.181603,147.761359 670.742508,147.761359 Z M663.470772,150.9543 C663.470772,151.639932 663.220368,152.060319 662.724568,152.30054 C662.449123,152.435664 662.068509,152.455683 661.572709,152.455683 L658.688053,152.455683 L658.688053,149.452917 L661.612774,149.452917 C662.098558,149.452917 662.479172,149.578032 662.749608,149.698143 C663.230384,149.918346 663.470772,150.368761 663.470772,150.9543 Z M661.577717,147.951534 L658.688053,147.951534 L658.688053,145.44923 L661.292256,145.44923 C661.833129,145.44923 662.278849,145.409193 662.629414,145.524299 C663.035069,145.689451 663.2404,145.984723 663.2404,146.505202 C663.2404,146.975635 663.08515,147.39352 662.779657,147.578691 C662.469156,147.763861 662.068509,147.951534 661.577717,147.951534 Z" id="Behance"></path>
            </g>
        </g>
    </g>
</svg>