<?xml version="1.0" encoding="UTF-8"?>
<svg width="39px" height="38px" viewBox="0 0 39 38" version="1.1" xmlns="http://www.w3.org/2000/svg" xmlns:xlink="http://www.w3.org/1999/xlink">
    <!-- Generator: Sketch 53.2 (72643) - https://sketchapp.com -->
    <title>Linkedin</title>
    <desc>Created with Sketch.</desc>
    <g id="Page-1" stroke="none" stroke-width="1" fill="none" fill-rule="evenodd">
        <g id="Desktop-HD-Copy" transform="translate(-755.000000, -4146.000000)" fill="#1F2933">
            <g id="Footer" transform="translate(-2.000000, 4016.000000)">
                <path d="M776.541713,130 C766.039764,130 757.526024,138.507836 757.526024,149.002502 C757.526024,159.492164 766.039764,168 776.541713,168 C787.038654,168 795.552394,159.492164 795.552394,149.002502 C795.552394,138.507836 787.038654,130 776.541713,130 L776.541713,130 Z M768.263353,145.949691 L771.76901,145.949691 L771.76901,157.460292 L768.263353,157.460292 L768.263353,145.949691 Z M769.81085,144.948769 L769.78581,144.948769 C768.4787,144.948769 767.637342,143.952851 767.637342,142.846833 C767.637342,141.720795 768.50374,140.804952 769.83589,140.804952 C771.163032,140.804952 771.97935,141.750823 772.009398,142.87686 C772.009398,143.982879 771.163032,144.948769 769.81085,144.948769 L769.81085,144.948769 Z M786.29245,157.460292 L781.785175,157.460292 L781.785175,151.629922 C781.785175,150.083498 781.269343,149.03253 779.862072,149.03253 C778.790342,149.03253 778.16934,149.743185 777.888887,150.428816 C777.783717,150.674042 777.778709,151.014355 777.778709,151.359673 L777.778709,157.460292 L773.902453,157.460292 C773.902453,157.460292 773.952534,146.950612 773.902453,145.949691 L777.778709,145.949691 L777.778709,147.916502 C778.279518,147.135783 779.481457,146.019755 781.544787,146.019755 C784.103918,146.019755 786.29245,147.656262 786.29245,151.189517 L786.29245,157.460292 L786.29245,157.460292 Z" id="Linkedin"></path>
            </g>
        </g>
    </g>
</svg>