<?xml version="1.0" encoding="UTF-8"?>
<svg width="39px" height="38px" viewBox="0 0 39 38" version="1.1" xmlns="http://www.w3.org/2000/svg" xmlns:xlink="http://www.w3.org/1999/xlink">
    <!-- Generator: Sketch 53.2 (72643) - https://sketchapp.com -->
    <title>Twitter</title>
    <desc>Created with Sketch.</desc>
    <g id="Page-1" stroke="none" stroke-width="1" fill="none" fill-rule="evenodd">
        <g id="Desktop-HD-Copy" transform="translate(-865.000000, -4146.000000)" fill="#1F2933">
            <g id="Footer" transform="translate(-2.000000, 4016.000000)">
                <path d="M886.617355,130 C876.115406,130 867.601666,138.507836 867.601666,149.002502 C867.601666,159.492164 876.115406,168 886.617355,168 C897.114296,168 905.628036,159.492164 905.628036,149.002502 C905.628036,138.507836 897.114296,130 886.617355,130 L886.617355,130 Z M893.844018,144.973792 C893.849026,145.143948 893.854034,145.314105 893.854034,145.484262 C893.854034,150.69406 889.982786,156.704596 882.906366,156.704596 C880.732858,156.704596 878.709593,156.048992 877.006844,154.932965 C877.307329,154.967997 877.612822,154.988015 877.923324,154.988015 C879.726233,154.988015 881.388917,154.357434 882.706042,153.301462 C881.018319,153.26643 879.601031,152.130383 879.110239,150.56394 C879.345619,150.608982 879.586007,150.634005 879.831403,150.634005 C880.186977,150.634005 880.567591,150.583959 880.888108,150.493876 C879.125263,150.133544 877.838186,148.537074 877.838186,146.625313 L877.838186,146.580271 C878.338994,146.870539 878.914924,147.050705 879.545942,147.070723 C878.509269,146.365073 877.813146,145.153958 877.813146,143.787699 C877.813146,143.067035 877.993437,142.386409 878.32397,141.805874 C880.222033,144.193073 883.0516,145.759515 886.251765,145.924667 C886.181652,145.6344 886.149099,145.334124 886.149099,145.028842 C886.149099,142.851837 887.870377,141.08521 889.994305,141.08521 C891.101091,141.08521 892.101706,141.560648 892.802838,142.326353 C893.679252,142.151192 894.500578,141.825892 895.246782,141.370473 C894.961321,142.291321 894.349834,143.067035 893.553549,143.552483 C894.33481,143.457395 895.076006,143.247201 895.762114,142.931911 C895.251289,143.722639 894.59523,144.41828 893.844018,144.973792 L893.844018,144.973792 Z" id="Twitter"></path>
            </g>
        </g>
    </g>
</svg>